<svg width="30" height="30" viewBox="0 0 30 30" fill="none" xmlns="http://www.w3.org/2000/svg">
<path d="M0 0H8.5827V8.596H0V0ZM10.7087 0H19.2913V8.596H10.7087V0ZM25.7087 0C23.3424 0 21.4173 1.9251 21.4173 4.29135V4.30471C21.4173 6.67096 23.3424 8.596 25.7087 8.596C28.0749 8.596 30 6.67096 30 4.30471V4.29135C30 1.9251 28.0749 0 25.7087 0ZM4.29135 10.702C1.9251 10.702 0 12.6271 0 14.9934V15.0067C0 17.373 1.9251 19.298 4.29135 19.298C6.6576 19.298 8.5827 17.373 8.5827 15.0067V14.9934C8.5827 12.6271 6.6576 10.702 4.29135 10.702ZM10.7087 10.702H19.2913V19.298H10.7087V10.702ZM21.4173 10.702H30V19.298H21.4173V10.702ZM0 21.4041H8.5827V30H0V21.4041ZM15 21.4041C12.6337 21.4041 10.7087 23.3291 10.7087 25.6954V25.7087C10.7087 28.075 12.6337 30 15 30C17.3662 30 19.2913 28.075 19.2913 25.7087V25.6954C19.2913 23.3291 17.3662 21.4041 15 21.4041ZM21.4173 21.4041H30V30H21.4173V21.4041Z" fill="#6b645c"/>
</svg>
